<?xml version="1.0" encoding="UTF-8"?>
<svg width="286" height="350" clip-rule="evenodd" fill-rule="evenodd" image-rendering="optimizeQuality" shape-rendering="geometricPrecision" text-rendering="geometricPrecision" version="1.0" viewBox="0 0 22501 27551" xml:space="preserve" xmlns="http://www.w3.org/2000/svg" xmlns:cc="http://creativecommons.org/ns#" xmlns:dc="http://purl.org/dc/elements/1.1/" xmlns:rdf="http://www.w3.org/1999/02/22-rdf-syntax-ns#"><metadata><rdf:RDF><cc:Work rdf:about=""><dc:format>image/svg+xml</dc:format><dc:type rdf:resource="http://purl.org/dc/dcmitype/StillImage"/><dc:title/></cc:Work></rdf:RDF></metadata>
 <defs><style type="text/css">
   <![CDATA[
    .fil0 {fill:black}
    .fil1 {fill:#ED3237}
    .fil2 {fill:#FAA831}
    .fil3 {fill:black;fill-rule:nonzero}
    .fil4 {fill:#B5090E;fill-rule:nonzero}
   ]]>
  </style></defs><g>
 <path class="fil0" d="m5013.9 27003c-57.736-51.32-141.13-115.47-160.38-179.62 12.83-558.11 25.66-1116.2 51.321-1674.3-25.66-461.89-44.906-917.36-64.151-1366.4 51.321-64.151 109.06-121.89 166.79-179.62 596.6 0 1199.6 6.416 1796.2 19.246 468.3 38.49 1026.4 205.28 1167.5 699.24-6.4151 70.566-6.4151 141.13-6.4151 218.11-89.811 384.91-461.89 538.87-821.13 628.68v12.831c314.34 57.736 635.09 179.62 859.62 404.15 38.49 57.735 70.566 121.89 115.47 179.62 12.83 57.736 25.66 121.89 44.906 186.04 0 70.566 0 134.72 6.4151 205.28-76.981 628.68-756.98 731.32-1276.6 833.96-622.26 0-1250.9 6.415-1879.6 12.83zm3573.2 153.96c-109.06-160.38-218.11-314.34-333.58-468.3 526.04-731.32 1045.7-1462.6 1578.1-2187.5-115.47-153.96-230.94-307.92-340-455.47 179.62-134.72 878.87-622.26 955.85-583.77 340 519.62 686.42 1052.1 1032.8 1578.1 365.66 493.96 737.74 994.34 1103.4 1494.7-333.58 198.87-660.75 404.15-987.92 615.85-474.72-718.49-943.02-1437-1411.3-2155.5-198.87 250.19-404.15 500.38-596.6 750.57-333.58 468.3-667.17 936.6-1000.8 1411.3zm4432.8-147.55c-76.981-57.736-147.55-102.64-218.11-153.96 12.831-519.62 25.661-1032.8 51.321-1539.6-25.66-526.04-38.49-1045.7-51.321-1565.3 57.736-57.736 115.47-109.06 179.62-160.38 577.36 6.415 1167.5 12.83 1751.3 19.246 102.64 19.245 211.7 38.49 320.76 57.735 468.3 160.38 750.57 429.81 814.72 936.6-12.831 269.43-64.151 481.13-237.36 705.66-211.7 211.7-513.21 327.17-801.89 410.57-307.92 25.66-603.02 51.32-904.53 89.811 19.245 397.74 64.151 801.89 109.06 1199.6h-1013.6zm866.04-1462.6c0-564.53 12.831-1122.6 25.661-1680.8 346.42 44.906 641.51 141.13 840.38 442.64 25.661 57.736 51.321 115.47 76.981 173.21 25.661 160.38 44.906 352.83-6.415 506.79-115.47 295.09-429.81 455.47-731.32 526.04-70.566 6.415-141.13 12.83-205.28 32.075zm2373.6 1469.1c-64.151-70.566-128.3-141.13-179.62-211.7 218.11-38.491 416.98-115.47 551.7-282.26 12.83-38.49 25.66-70.566 44.905-102.64 0-70.566 0-134.72 6.416-198.87-76.982-404.15-314.34-821.13-481.13-1193.2-25.66-109.06-44.905-218.11-70.566-320.75-6.415-83.397-6.415-166.79-6.415-250.19 38.491-250.19 115.47-429.81 295.1-615.85 301.51-211.7 680-320.76 1045.7-320.76 57.736 64.151 115.47 128.3 166.79 198.87-192.45 51.321-333.58 96.227-487.55 237.36-25.66 38.49-44.905 83.396-70.566 121.89-25.66 166.79 0 346.42 51.321 506.79 134.72 333.58 263.02 667.17 397.74 1007.2 32.075 218.11 89.811 436.23 32.075 654.34-44.905 76.981-89.811 160.38-128.3 243.77-57.735 51.321-115.47 109.06-166.79 160.38-179.62 109.06-365.66 186.04-551.7 263.02-153.96 32.076-301.51 64.151-449.06 102.64zm-10341-1841.1c6.4151-436.23 12.83-872.45 19.245-1302.3 320.75 25.661 699.25 76.982 910.94 352.83 19.245 64.151 44.906 128.3 76.981 192.45 0 64.151 0 134.72 6.4151 211.7-83.396 436.23-647.92 519.62-1013.6 545.28zm12.83 1526.8c6.4151-429.81 19.245-866.04 25.66-1295.8 416.98 32.075 968.68 96.226 1148.3 538.87 134.72 667.17-731.32 718.49-1174 756.98z"/><path class="fil1" d="m10030 26958c-327.17-102.64-538.87-250.19-519.62-628.68 70.566-352.83 500.38-545.28 827.55-416.98 211.7 115.47 295.1 205.28 365.66 429.81 0 25.66 0 51.32 6.415 89.811-51.321 378.49-320.76 500.38-680 526.04z"/><path class="fil1" d="m5450.1 21467c-83.396-153.96-275.85-307.92-340-468.3-96.226-141.13-192.45-282.26-295.09-410.57-6.4151-57.736-6.4151-115.47-6.4151-166.79 57.736-38.491 64.151-57.736 134.72-57.736 51.321 25.66 96.226 57.736 147.55 89.811 0-166.79 6.4151-333.58 12.83-500.38-153.96-6.415-307.92-12.83-461.89-12.83-64.151-89.812-115.47-179.62-173.21-256.6 1263.8-12.83 2521.1-12.83 3784.9-12.83-96.226-166.79-121.89-378.49-6.4151-538.87 44.906-38.491 89.811-70.566 141.13-102.64 38.491-12.83 83.396-19.245 134.72-25.66 295.09 0 506.79 134.72 756.98 295.09 51.321 51.321 314.34 198.87 141.13 282.26-211.7-166.79-609.43-449.06-885.28-269.43-38.491 32.076-70.566 76.982-96.226 115.47-12.83 83.396-19.245 166.79-19.245 256.6 3137-6.415 6280.4 0 9417.4 6.415 44.905 83.396 102.64 166.79 160.38 256.6-134.72 0-256.6 0-384.91 6.415-6.415 468.3-12.83 936.6-12.83 1398.5-89.811-57.735-186.04-121.89-269.43-179.62-12.83-404.15-12.83-808.3-12.83-1212.5-128.3-6.415-263.02-6.415-397.74-6.415-6.415 275.85-12.83 564.53-12.83 853.21-19.245 64.151-89.811 128.3-147.55 186.04-51.321 12.83-102.64 25.66-153.96 38.491-179.62-19.246-384.9-96.227-500.38-256.6-38.491-64.151-83.396-115.47-121.89-173.21-6.415-218.11-6.415-429.81-6.415-641.51-128.3-6.415-256.6-6.415-378.49-6.415-6.415 468.3-6.415 936.6-6.415 1404.9-96.227-64.15-198.87-128.3-288.68-192.45-6.415-96.227-6.415-186.04-6.415-275.85-250.19 121.89-468.3 179.62-712.08-6.416-89.812-109.06-320.76-404.15-269.43-564.53 115.47-19.245 243.77-70.566 352.83-115.47 51.321-96.226 32.075-147.55-19.245-250.19h-705.66c-6.415 468.3-6.415 936.6-6.415 1404.9-96.226-64.15-186.04-134.72-275.85-205.28v-1199.6h-506.79c-6.415 205.28-12.831 416.98-12.831 635.09-19.245 76.981-128.3 166.79-179.62 230.94 115.47 134.72 243.77 340 397.74 436.23-38.491 44.906-70.566 83.396-102.64 128.3-205.28-237.36-397.74-513.21-609.43-744.15-19.245-38.491-115.47-160.38-89.811-218.11 12.83-25.661 25.66-44.906 38.49-57.736 25.661-6.415 51.321-6.415 76.982-6.415 51.32 12.83 186.04 89.811 211.7 64.151v-468.3h-686.42c-6.415 468.3-6.415 936.6-6.415 1398.5-89.812-57.735-179.62-121.89-269.43-186.04-6.416-404.15-6.416-808.3-6.416-1206h-372.08v1398.5c-96.226-64.15-192.45-134.72-288.68-198.87v-647.92h-391.32c-51.321 44.906-38.491 147.55-44.906 218.11-25.66 25.661-76.981 19.246-109.06 25.661-147.55-128.3-288.68-275.85-288.68-474.72 19.245-12.831 32.075-25.661 51.32-32.076 250.19-12.83 506.79-6.415 769.81-6.415 0-102.64 6.415-192.45 12.83-282.26-378.49-6.415-756.98-6.415-1122.6-6.415-6.415 468.3-6.415 936.6-6.415 1404.9-102.64-64.15-198.87-128.3-288.68-192.45-6.4151-128.3-6.4151-250.19-6.4151-365.66-160.38-6.415-320.75 0-481.13 0-6.4151 57.736-12.83 121.89-19.245 186.04-166.79 83.396-391.32-243.77-449.06-365.66 0-109.06 57.736-96.227 160.38-96.227v-570.94h-526.04c-12.83 468.3-12.83 936.6-12.83 1404.9-96.226-64.15-192.45-128.3-282.26-192.45-6.4151-404.15-6.4151-808.3-6.4151-1206-141.13-6.415-282.26-6.415-410.57-6.415-6.4151 468.3-6.4151 936.6-6.4151 1404.9-102.64-64.15-192.45-128.3-282.26-192.45-6.4151-404.15-6.4151-808.3-6.4151-1212.5h-372.08c-6.4151 468.3-12.83 936.6-12.83 1398.5-89.811-57.735-179.62-121.89-269.43-186.04-6.4151-89.812-12.83-179.62-12.83-263.02-76.981 38.49-153.96 83.396-230.94 128.3-76.981 6.415-153.96 25.66-230.94 38.49-211.7-44.905-340-153.96-474.72-307.92-83.396 12.83-160.38 25.66-237.36 44.905-57.736-25.66-102.64-38.49-153.96-51.32-51.321-38.491-89.811-70.566-134.72-102.64-57.736 76.981-166.79 147.55-205.28 230.94 128.3 147.55 269.43 301.51 410.57 455.47-51.321 44.906-89.811 83.396-134.72 128.3zm795.47-622.26c-141.13-70.566-109.06-76.981-128.3-218.11 109.06-365.66 461.89-275.85 724.91-102.64v64.151c-179.62 102.64-391.32 230.94-596.6 256.6zm-718.49-314.34c-44.906-6.415-89.811-12.83-128.3-19.245v-558.11h1449.8c-6.4151 141.13-19.245 275.85-19.245 416.98-89.811-83.396-179.62-160.38-263.02-237.36-288.68-51.32-513.21-32.075-692.83 224.53-19.245 38.49-32.075 83.396-38.49 134.72-83.396 38.49-218.11 32.075-307.92 38.49zm3810.6 0v-577.36h493.96v577.36h-493.96zm5369.4 230.94c-134.72-70.566-141.13-102.64-76.981-230.94 96.227-25.66 256.6-70.566 327.17-141.13 0-153.96-121.89-295.09-121.89-436.23h468.3c-6.415 192.45-12.83 391.32-12.83 583.77-32.075 19.246-70.566 51.321-102.64 76.982-115.47 44.905-218.11 89.811-320.76 141.13-57.736 0-115.47 0-160.38 6.415zm1661.5 19.245c-51.321-12.83-70.566-38.491-102.64-96.226v-731.32h365.66c-6.415 205.28-6.415 416.98-6.415 635.09-38.491 160.38-109.06 160.38-256.6 192.45z"/><path class="fil2" d="m10993 18888c-192.45-44.906-378.49-76.981-570.94-115.47-166.79-57.735-333.58-109.06-493.96-166.79-250.19-128.3-500.38-275.85-731.32-442.64-160.38-160.38-320.75-314.34-474.72-468.3-160.38-224.53-301.51-461.89-423.4-712.08-128.3-327.17-211.7-647.92-256.6-1000.8-25.66-2514.7-38.49-5029.4-51.321-7544.2h429.81c32.076 2527.5 64.151 5048.7 102.64 7582.6 44.906 397.74 186.04 724.91 365.66 1077.7 121.89 153.96 237.36 307.92 359.25 461.89 230.94 263.02 545.28 455.47 853.21 609.43 109.06 32.075 211.7 76.981 320.76 115.47 121.89 25.661 237.36 57.736 365.66 83.397 192.45 6.415 391.32 19.245 590.19 38.49 320.75-38.49 647.92-115.47 949.43-224.53 352.83-160.38 667.17-391.32 949.43-660.76 64.151-96.226 134.72-179.62 198.87-263.02 70.566-121.89 141.13-250.19 218.11-372.08 134.72-295.1 224.53-622.26 256.6-936.6 25.661-2501.9 44.906-5003.8 64.151-7505.7h442.64c-12.83 2463.4-12.83 4933.2-12.83 7403-64.151 821.13-372.08 1539.6-968.68 2129.8-83.396 70.566-166.79 147.55-250.19 224.53-109.06 70.566-218.11 147.55-327.17 224.53-500.38 263.02-1032.8 397.74-1590.9 455.47-102.64 0-205.28 0-314.34 6.415z"/><path class="fil1" d="m11057 15437c-833.96-109.06-1494.7-532.45-1898.9-1270.2-70.566-173.21-141.13-352.83-192.45-532.45-38.491-282.26-64.151-570.94-19.245-859.62 89.811-564.53 384.91-1007.2 795.47-1385.7 192.45-134.72 391.32-256.6 596.6-359.24 121.89-44.906 243.77-76.981 372.08-115.47 295.09-44.906 590.19-70.566 885.28-19.245 519.62 89.811 968.68 372.08 1334.3 750.57 44.906 70.566 102.64 141.13 160.38 211.7 205.28 327.17 307.92 654.34 378.49 1039.2 0 76.981 6.415 153.96 12.83 230.94-6.415 109.06-12.83 224.53-19.245 333.58-128.3 866.04-724.9 1552.5-1533.2 1854-115.47 25.66-230.94 57.735-340 83.396-179.62 6.415-359.25 19.245-532.45 38.49z"/><path class="fil0" d="m4385.2 22532c-301.51-12.83-590.19-19.246-885.28-25.661v-32.075c-365.66-89.811-160.38-615.85 192.45-532.45 0-1270.2 6.4151-2540.4 19.245-3810.6 25.66-96.226 83.396-173.21 160.38-250.19-19.245-25.66-25.66-57.735-32.075-76.981 0-89.811 12.83-109.06 64.151-173.21-173.21-173.21-19.245-378.49 153.96-461.89 57.736-12.83 121.89-25.66 179.62-38.491 256.6 0 436.23 134.72 436.23 404.15-25.66 32.076-44.906 70.566-57.736 109.06 6.4151 25.66 19.245 57.736 32.075 89.811 0 121.89-83.396 134.72 19.245 230.94 19.245 89.811 38.491 179.62 64.151 282.26 38.49-6.415 76.981 0 121.89 0 51.321-949.43 109.06-1892.5 173.21-2835.5-173.21-102.64-256.6-243.77-121.89-429.81-32.076-153.96-57.736-307.92-89.811-455.47-44.906-12.83-96.226-19.245-134.72-25.66v-795.47c-76.981-57.736-153.96-109.06-230.94-166.79-64.151-89.812-128.3-179.62-179.62-263.02-51.321-160.38-64.151-301.51-76.981-461.89-153.96 0-282.26-64.151-352.83-205.28-6.4151-25.661-6.4151-51.321-6.4151-83.396-160.38-76.982-173.21-141.13-173.21-314.34-134.72-96.226-134.72-134.72-153.96-301.51-192.45-121.89-346.42-295.1-442.64-506.79-32.075-96.226-57.736-192.45-83.396-288.68-134.72 12.83-211.7 32.075-327.17 96.226-275.85-282.26-320.75-609.43-320.75-975.09 44.906-147.55 83.396-295.09 128.3-442.64-44.906-115.47-83.396-237.36-128.3-346.42-12.83-141.13-19.245-282.26-25.66-410.57 12.83-121.89 25.66-237.36 51.321-352.83-307.92-19.245-615.85-38.49-923.77-51.321-6.4151-288.68-12.83-570.94-12.83-853.21 166.79 0 340 6.4151 519.62 12.83 19.245-44.906 38.491-89.811 57.736-128.3 128.3-128.3 32.076-218.11 51.321-372.08 44.906-102.64 96.226-211.7 147.55-307.92 57.736-83.396 109.06-166.79 166.79-250.19h25.66c166.79 230.94 513.21 590.19 275.85 891.7 32.076 57.736 64.151 121.89 102.64 179.62 153.96-134.72 307.92-269.43 468.3-404.15 320.75-230.94 667.17-404.15 1052.1-481.13 0-141.13 6.415-288.68 12.83-429.81 256.6-57.736 429.81 64.151 635.09 179.62 76.981-76.981-19.245-121.89-57.736-205.28 0-102.64 6.4151-192.45 38.491-288.68 109.06-173.21 218.11-346.42 340-513.21h19.245c102.64 198.87 211.7 404.15 314.34 603.02 0 70.566 0 141.13 6.4151 211.7-25.66 44.906-57.736 102.64-76.981 160.38 38.49 51.321 76.981 109.06 121.89 173.21 378.49-32.076 789.06-83.396 1135.5-256.6 449.06-314.34 904.53-628.68 1366.4-936.6 468.3-282.26 930.19-577.36 1430.6-821.13 147.55-70.566 288.68-141.13 442.64-205.28-147.55-179.62-38.491-288.68 121.89-410.57 96.227-38.49 198.87-83.396 307.92-121.89-243.77-1199.6-493.96-2399.2-724.91-3592.5 0-12.83 0-25.66 6.4151-44.906 51.321-12.83 109.06-19.245 173.21-25.66 6.4151 64.151 19.245 128.3 32.075 192.45 12.83 0 32.076 0 44.906 12.83 256.6-109.06 493.96-115.47 763.4-128.3 769.81 76.981 1417.7 673.58 2200.4 622.26 128.3-19.245 275.85-102.64 397.74-160.38-51.32 198.87-166.79 359.25-314.34 506.79-256.6 121.89-538.87 211.7-833.96 186.04 64.15 128.3 295.09 134.72 416.98 153.96 89.811-19.245 179.62-38.491 269.43-57.736 70.566-44.906 173.21-128.3 250.19-128.3-25.66 64.151-57.736 128.3-83.396 192.45-89.811 76.981-173.21 153.96-256.6 237.36-179.62 89.811-378.49 179.62-577.36 211.7-147.55 0-288.68 0-429.81 6.415 0 44.906 0 83.396 6.416 128.3-12.831 102.64-83.397 192.45-141.13 275.85 19.245 44.906 44.905 83.396 70.566 134.72-6.416 32.075-12.831 70.566-12.831 109.06 166.79 96.226 230.94 250.19 301.51 416.98-19.245 160.38-70.566 230.94-186.04 352.83-64.151 25.66-128.3 38.491-153.96 102.64 6.415 0 12.83 0 19.245 6.4151 0 102.64 256.6 205.28 307.92 307.92 96.226 32.076 192.45 70.566 295.09 102.64 115.47 83.396 275.85 263.02 128.3 404.15 263.02 128.3 538.87 250.19 808.3 384.91 833.96 442.64 1603.8 1013.6 2386.4 1526.8 70.566 38.49 141.13 70.566 211.7 109.06 314.34 83.396 673.58 205.28 1000.8 179.62 38.49-57.736 70.566-115.47 109.06-166.79-128.3-224.53-70.566-372.08 32.076-603.02 70.566-134.72 141.13-256.6 218.11-384.91 147.55 218.11 423.4 506.79 391.32 795.47-32.076 57.736-64.151 115.47-96.227 173.21 6.415 19.245 25.661 38.49 38.491 57.736 76.981-51.321 153.96-96.226 237.36-147.55 64.151-19.245 128.3-38.491 198.87-51.321 64.151 0 134.72 6.4151 205.28 12.83 0 134.72 0 282.26 6.415 429.81 134.72 25.66 263.02 64.151 404.15 96.226 186.04 109.06 384.91 211.7 577.36 314.34 179.62 147.55 372.08 295.09 538.87 461.89 25.66 0 109.06-147.55 109.06-186.04-25.66-57.736-57.736-115.47-76.981-160.38 0-128.3 44.906-237.36 83.396-359.25 89.812-121.89 192.45-250.19 288.68-365.66 115.47 179.62 237.36 365.66 327.17 570.94v153.96c-6.415 38.491-12.83 83.396-19.245 128.3 38.491 64.151 89.811 134.72 134.72 205.28 179.62-6.415 352.83-6.415 526.04-6.415-12.83 275.85-19.245 558.11-25.661 840.38-115.47 0-853.21 0-930.19 76.981 76.981 282.26 76.981 577.36 0 859.62-32.076 83.396-64.151 173.21-89.812 263.02 38.491 134.72 83.397 269.43 121.89 404.15 0 141.13 0 295.1-19.245 429.81-32.075 96.226-70.566 186.04-96.226 282.26-64.151 89.811-128.3 179.62-179.62 275.85-147.55-76.981-198.87-89.811-365.66-89.811-19.246 83.396-32.076 173.21-44.906 263.02-89.811 224.53-275.85 404.15-461.89 532.45 0 147.55-38.49 211.7-141.13 314.34 0 70.566-6.415 134.72-38.491 205.28-44.905 25.66-76.981 57.736-115.47 89.811-32.076 115.47-115.47 243.77-237.36 288.68-44.905-6.415-96.226 0-134.72 6.416-25.66 282.26-89.811 513.21-275.85 737.74-70.566 44.906-134.72 96.227-192.45 147.55-6.415 269.43-19.245 545.28-19.245 821.13-44.906 0-89.811 0-128.3 6.415-44.905 147.55-76.981 295.09-109.06 449.06 109.06 173.21 102.64 340-102.64 436.23 57.736 943.02 121.89 1886 179.62 2829.1 38.49 0 76.981 0 121.89 6.415 12.83-128.3 19.245-250.19 115.47-346.42-12.83-19.245-25.66-44.905-32.075-64.151 0-76.981 0-102.64 25.66-179.62-141.13-269.43 38.491-481.13 314.34-532.45 57.736 12.83 115.47 19.245 173.21 25.66 205.28 32.076 314.34 192.45 288.68 404.15-19.246 25.661-44.906 51.321-57.736 89.812 12.83 25.66 38.49 57.735 57.736 83.396-12.831 51.321-25.661 102.64-32.076 160.38 83.396 38.491 141.13 160.38 166.79 243.77 0 654.34 0 1308.7 6.415 1969.4-6.415 0-12.831 19.245-19.246 32.075 6.415 0 12.831 0 25.661 6.415 6.415 590.19 12.83 1193.2 19.245 1789.8 263.02 25.66 352.83 70.566 384.91 346.42-25.661 76.981-76.981 134.72-128.3 198.87-109.06 12.83-211.7 25.66-320.76 44.905-4798.5 6.415-9584.2 19.246-14376 32.076zm13375-14242c0-147.55 160.38-340 230.94-461.89 44.905-64.151 102.64-128.3 160.38-192.45 0-179.62 6.415-359.25 12.83-532.45 307.92 0 622.26 205.28 872.45 346.42 128.3 96.226 352.83 269.43 423.4 410.57-583.77 83.396-1141.9 243.77-1700 429.81zm-7287.5-5132.1c-76.981-372.08-153.96-744.15-224.53-1109.8 160.38 0 320.76-6.4151 481.13 19.245-25.66 44.906-57.736 96.226-83.396 153.96-6.415 51.321-6.415 115.47-6.415 179.62 12.83 44.906 25.66 83.396 44.905 134.72 25.661 38.491 57.736 83.396 96.227 128.3-64.151 64.151-83.396 134.72-70.566 237.36-109.06 70.566-160.38 160.38-237.36 256.6zm-6498.5 14864c-6.4151-12.83-6.4151-32.075-6.4151-38.49 38.491-44.906 83.396-96.227 128.3-134.72-25.66-57.736-57.736-76.981-44.906-153.96 6.4151-25.661 19.245-44.906 32.075-64.151-25.66-32.076-44.906-57.736-70.566-83.397-19.245-205.28 153.96-243.77 320.75-237.36 83.396 32.075 198.87 109.06 160.38 224.53-25.66 32.076-44.906 70.566-64.151 102.64 6.4151 12.83 19.245 25.66 32.076 44.905 0 25.661 0 57.736 6.4151 96.227-25.66 32.075-57.736 70.566-83.396 102.64 32.075 44.906 70.566 83.397 109.06 128.3-173.21 0-346.42 6.415-519.62 12.83zm-76.981 243.77c0-44.906 0-76.981 6.4151-109.06 211.7-6.415 423.4 0 641.51 0 6.4151 25.661 12.83 57.736 19.245 96.227-218.11 0-442.64 6.415-667.17 12.83zm14120-256.6c12.83-44.905 32.076-76.981 57.736-115.47 12.83-19.246 32.075-38.491 51.321-57.736-32.076 0-76.981-57.736-96.227-76.981 0-76.982 6.415-102.64 57.736-147.55-70.566-70.566-121.89-128.3-70.566-230.94 76.981-76.981 141.13-76.981 243.77-96.226 141.13 25.66 237.36 96.226 224.53 256.6-25.66 25.661-64.151 57.736-64.151 102.64 64.151 44.906 6.415 134.72-12.83 179.62 38.49 57.735 89.811 115.47 141.13 179.62-186.04 0-359.24 0-532.45 6.415zm237.36 243.77c-102.64-12.83-211.7-19.245-314.34-19.245 0-32.076 0-64.151 6.415-96.227 218.11 0 442.64 6.415 660.76 19.245v89.812c-115.47-6.415-237.36 0-352.83 6.415zm-13651 4092.8c-333.58-12.83-667.17-12.83-994.34-12.83-89.811-32.076-109.06-57.736-109.06-147.55 12.83-25.661 32.075-44.906 57.736-57.736 5138.5-6.415 10277-12.83 15415-12.83 51.321 44.905 51.321 109.06 12.83 166.79-57.735 6.415-109.06 19.245-166.79 32.076-4740.8 6.415-9481.5 19.245-14216 32.075zm12554-15826c-115.47-70.566-141.13-173.21-89.812-320.75 38.491-83.396 70.566-166.79 115.47-243.77h32.075c70.566 115.47 115.47 224.53 160.38 352.83-19.246 153.96-64.151 192.45-218.11 211.7zm-12.831 307.92c-32.075-12.83-70.566-19.245-96.226-25.66 0-64.151 12.83-96.226 64.151-134.72 89.811 0 359.24-25.66 250.19 141.13-76.982 6.4151-147.55 12.83-218.11 19.245zm2886.8 673.58c-147.55-76.981-160.38-160.38-76.981-340 38.49-51.321 70.566-102.64 115.47-147.55 12.831 12.83 32.076 32.076 51.321 51.321 102.64 205.28 198.87 378.49-89.811 436.23zm-109.06 295.09c-6.415-12.83-12.83-25.66-12.83-38.491 19.245-38.49 38.491-64.151 64.151-89.811 96.226-6.4151 186.04-12.83 275.85-12.83 32.075 32.076 64.151 64.151 76.981 115.47-141.13 6.4151-275.85 12.83-404.15 25.66zm-2296.6 936.6c-6.415-12.83-12.83-19.245-12.83-25.66 12.83-64.151 25.661-128.3 38.491-192.45 962.26-397.74 1950.2-532.45 2983-603.02-89.812 51.321-186.04 109.06-269.43 173.21-218.11 19.245-436.23 44.906-654.34 76.981-295.09 51.321-596.6 109.06-891.7 166.79-173.21 44.906-340 89.811-506.79 141.13-230.94 83.396-461.89 173.21-686.42 263.02zm-32.075 436.23v-224.53c128.3-64.151 263.02-128.3 397.74-192.45 378.49-128.3 769.81-237.36 1161.1-333.58 186.04-32.076 378.49-70.566 564.53-102.64 243.77-38.491 487.55-70.566 737.74-96.226 96.226-64.151 307.92-256.6 429.81-256.6-6.415 153.96-19.245 307.92-19.245 461.89-372.08 38.49-744.15 70.566-1109.8 115.47-737.74 115.47-1488.3 295.09-2161.9 628.68zm-6960.4-5292.5c-32.076-32.076-44.906-153.96-44.906-205.28 51.321 12.83 102.64 32.075 147.55 51.321 0 70.566-32.075 134.72-102.64 153.96zm-429.81-2091.3c-70.566-327.17-147.55-667.17-198.87-994.34 102.64-70.566 230.94 218.11 263.02 288.68 38.491 198.87 121.89 558.11-64.151 705.66zm1719.2 282.26c-76.982-12.83-153.96-25.66-230.94-44.906-32.075-44.906-70.566-89.811-102.64-128.3-6.415-44.906-44.906-160.38-83.397-186.04 6.416-83.396 19.246-166.79 32.076-250.19-32.076-230.94-211.7-423.4-320.76-615.85-109.06 0-282.26 442.64-327.17 577.36 0 96.226 0 198.87 19.246 301.51-19.246 25.66-38.491 51.321-51.321 76.981-6.415 32.076-6.415 64.151-6.415 102.64-141.13-19.245-282.26-44.906-423.4-64.151 51.32-237.36 109.06-461.89 57.735-705.66-38.49-147.55-115.47-288.68-179.62-429.81 83.396-83.396 519.62-25.66 641.51-19.245 147.55 32.075 307.92 70.566 442.64 128.3 391.32 198.87 840.38 416.98 1276.6 474.72 89.811-6.4151 192.45-12.83 288.68-19.245-307.92 250.19-724.91 160.38-1090.6 102.64 0 179.62 141.13 301.51 250.19 429.81 83.397 32.076 179.62 64.151 269.43 109.06 64.151 6.4151 121.89 12.83 186.04 25.66-109.06 115.47-519.62 128.3-647.92 134.72zm-737.74-429.81c-134.72-64.151-121.89-115.47-121.89-250.19 44.906-64.151 83.396-128.3 128.3-192.45 38.49 0 128.3 134.72 147.55 160.38 51.321 166.79 0 243.77-153.96 282.26zm-32.076 275.85c-64.151-32.075-115.47-51.321-102.64-141.13 89.811-25.66 179.62-25.66 282.26-32.076 12.83 12.83 25.66 25.66 44.906 38.491 0 141.13-109.06 121.89-224.53 134.72zm32.076 699.25c-128.3-25.66-218.11-102.64-301.51-186.04-70.566-218.11 25.661-320.75 218.11-397.74 89.812 0 186.04 0 282.26 12.83 160.38 102.64 160.38 134.72 192.45 301.51-19.245 102.64-128.3 192.45-218.11 230.94-64.151 6.415-115.47 25.66-173.21 38.49zm6.415 275.85c-89.812 0-179.62-25.66-263.02-51.321v-64.151c12.83-19.245 25.66-32.076 38.491-38.491h513.21c89.811 192.45-218.11 83.396-288.68 153.96zm-12.83 724.91c-237.36-32.075-686.42-115.47-487.55-449.06 186.04-192.45 577.36-160.38 821.13-128.3 134.72 38.491 205.28 83.396 269.43 211.7 0 25.66 0 57.736 6.416 96.226-109.06 230.94-378.49 243.77-609.43 269.43zm-391.32 397.74c57.736-83.396 115.47-166.79 179.62-243.77 160.38-6.4151 320.75-6.4151 487.55-6.4151 57.736 76.981 115.47 153.96 173.21 237.36-282.26 0-564.53 6.4151-840.38 12.83zm-551.7 519.62c-70.566-70.566-96.227-83.396-44.906-166.79 590.19-269.43 1379.2-275.85 1975.8-38.491 70.566 38.491 102.64 83.396 89.811 166.79-83.396 83.396-474.72-38.49-577.36-51.321-301.51-12.83-596.6-12.83-891.7-12.83-186.04 32.076-372.08 64.151-551.7 102.64zm-3098.5 2033.6-12.83-12.83c198.87-141.13 397.74-282.26 603.02-416.98 282.26-205.28 577.36-397.74 872.45-596.6 256.6-153.96 519.62-307.92 782.64-449.06 340-166.79 686.41-307.92 1039.2-416.98 102.64-19.245 205.28-38.491 307.92-51.321 359.24-25.66 737.74-38.49 1097 19.245 346.42 76.981 686.42 179.62 1020 327.17 51.321 25.66 115.47 57.736 179.62 83.396 340 198.87 680 404.15 1032.8 609.43 423.4 288.68 846.79 583.77 1270.2 878.87-121.89-25.66-237.36-38.49-359.25-51.321-744.15-192.45-1501.1-436.23-2251.7-615.85-545.28-83.396-1090.6-134.72-1635.8-141.13-340 25.66-667.17 51.321-994.34 83.396-994.34 166.79-1950.2 570.94-2950.9 750.57zm-1879.6 962.26c-256.6-38.491-506.79-64.151-763.4-89.811-12.83-269.43-19.245-532.45-25.66-789.06 263.02 38.491 307.92 115.47 468.3 327.17 198.87 6.4151 404.15 12.83 615.85 19.245 1206-70.566 2380-416.98 3534.7-769.81 173.21-51.321 346.42-89.811 519.62-134.72 211.7-38.49 416.98-76.981 635.09-109.06 211.7-32.075 416.98-51.321 628.68-70.566 250.19 0 500.38 0 756.98 6.4151 570.94 38.49 1148.3 160.38 1706.4 288.68 570.94 160.38 1148.3 327.17 1725.7 493.96 288.68 51.321 570.94 115.47 859.62 179.62 538.87 64.151 1064.9 134.72 1603.8 70.566 115.47-173.21 237.36-333.58 468.3-314.34-6.415 250.19-19.246 506.79-25.661 763.4-109.06 25.66-218.11 44.906-333.58 64.151-814.72 76.981-1629.4 6.4151-2444.2-102.64-211.7-44.906-416.98-83.396-622.26-128.3-744.15-186.04-1494.7-372.08-2251.7-500.38-205.28-19.245-397.74-44.906-596.6-57.736-269.43-6.4151-538.87-12.83-808.3-12.83-224.53 12.83-455.47 38.491-680 57.736-1064.9 160.38-2104.2 506.79-3175.5 680-314.34 38.49-615.85 70.566-923.77 109.06-295.09 6.4151-590.19 12.83-872.45 19.245zm0-981.51c-295.09-70.566-134.72-404.15-12.83-570.94 6.4151-6.4151 12.83 0 25.66 0 64.151 160.38 282.26 506.79-12.83 570.94zm-83.396 301.51c-38.491-25.66-70.566-38.491-109.06-51.321v-44.906c12.83-19.245 25.66-38.49 44.906-51.321 83.396 0 166.79-25.66 250.19 0 12.83 25.66 57.736 89.811 44.906 121.89-76.981 6.4151-153.96 12.83-230.94 25.66zm-2732.8 981.51c-96.226-12.83-198.87-25.66-288.68-32.076-6.4151-12.83-6.4151-19.245-6.4151-25.66 12.83-25.66 38.49-57.736 57.736-76.981 96.226 0 192.45 0 288.68 6.4151 25.66 32.076 44.906 70.566 64.151 115.47-38.491 0-83.396 6.4151-115.47 12.83zm-70.566-301.51c-243.77-96.226-96.226-320.75 12.83-474.72h25.66c83.396 134.72 243.77 340 57.736 461.89-32.076 0-70.566 6.4151-96.226 12.83zm2303 789.06c-224.53-76.981-449.06-153.96-667.17-230.94-333.58-70.566-667.17-141.13-1000.8-211.7 89.811-96.226 179.62-192.45 275.85-282.26 115.47-83.396 230.94-160.38 352.83-237.36 121.89-64.151 250.19-121.89 378.49-179.62 96.226-19.245 192.45-32.076 288.68-44.906 0 166.79 0 340 6.4151 513.21 51.321 64.151 102.64 128.3 160.38 198.87 51.321 83.396 243.77 352.83 243.77 468.3-12.83 0-25.66 0-38.491 6.4151zm128.3 429.81c-211.7-83.396-423.4-166.79-635.09-250.19-397.74-102.64-808.3-205.28-1212.5-275.85-282.26-38.49-564.53-70.566-840.38-102.64-89.811-57.736-186.04-115.47-275.85-173.21 936.6 0 1911.7 211.7 2790.6 513.21 57.736 19.245 109.06 44.906 173.21 76.981 12.83 64.151 32.076 134.72 51.321 205.28-19.245 0-38.491 0-51.321 6.4151zm70.566 449.06c-102.64-51.321-205.28-102.64-307.92-147.55-346.42-134.72-718.49-230.94-1071.3-333.58-179.62-44.906-365.66-76.981-545.28-115.47-442.64-57.736-898.11-109.06-1347.2-134.72-6.4151-153.96-6.4151-307.92-6.4151-461.89 109.06 0 327.17 186.04 416.98 243.77 198.87 44.906 429.81 64.151 628.68 83.396 731.32 109.06 1597.4 256.6 2238.9 641.51 0 38.49 12.83 198.87-6.4151 224.53zm5747.9 12760c-2245.3-6.415-4484.2-12.83-6723-19.245 0-1174 0-2341.5 6.4151-3502.6h1097c64.151-981.51 128.3-1963 198.87-2938.1v-218.11c-102.64-38.49-211.7-76.981-153.96-211.7 19.245-12.83 32.076-25.66 51.321-38.491 0-198.87-89.811-455.47-141.13-660.75h-96.226v-776.23c-423.4-141.13-545.28-609.43-449.06-1013.6-128.3 25.661-340 115.47-397.74-64.151 0-32.075 12.83-70.566 19.245-96.226-64.151-19.245-115.47-64.151-160.38-115.47 0-57.736 6.4151-121.89 12.83-179.62-83.396-32.076-153.96-51.321-192.45-141.13 6.4151-64.151 19.245-128.3 32.076-186.04-243.77-134.72-391.32-243.77-513.21-493.96-6.4151-121.89-12.83-230.94-12.83-340-83.396-25.661-166.79-38.491-250.19-51.321-89.811 12.83-173.21 25.66-256.6 51.321-109.06-230.94-166.79-436.23-147.55-692.83 44.906-160.38 89.811-314.34 141.13-468.3-192.45-288.68-250.19-731.32-121.89-1052.1 6.4151-6.4151 19.245-12.83 32.076-19.245 840.38 96.226 1719.2 365.66 2469.8 763.4 0-115.47 0-230.94 12.83-352.83 0-186.04-51.321-384.91-76.981-564.53-83.396-320.75-263.02-628.68-449.06-891.7 0-12.83 0-25.66 6.4151-38.491 384.91 19.245 776.23 32.076 1167.5 51.321 583.77-19.245 1167.5-89.811 1751.3-186.04 680-166.79 1366.4-333.58 2052.8-506.79 455.47-57.736 917.36-128.3 1372.8-173.21 782.64 0 1565.3 70.566 2322.3 237.36 526.04 128.3 1045.7 256.6 1578.1 391.32 205.28 32.076 404.15 70.566 615.85 115.47 340 25.66 680 57.736 1020 96.226h801.89c205.28-12.83 468.3-64.151 673.58-32.075-115.47 179.62-230.94 359.25-320.76 545.28-44.906 109.06-83.396 224.53-121.89 333.58-44.906 314.34-115.47 641.51-38.49 955.85 699.24-436.23 1623-641.51 2424.9-769.81 64.151 0 83.396 109.06 96.227 160.38 38.49 275.85 6.415 654.34-160.38 891.7 0 147.55 89.812 327.17 134.72 461.89 0 96.226 0 186.04 6.415 275.85-25.66 160.38-89.811 307.92-153.96 455.47-64.151-25.66-128.3-44.905-179.62-57.735-121.89 0-218.11 12.83-320.75 44.905 0 160.38 0 320.76-70.566 468.3-44.906 51.321-83.397 109.06-128.3 160.38-109.06 76.982-224.53 166.79-340 224.53 12.83 51.321 25.66 96.226 51.321 147.55-57.736 109.06-83.397 134.72-198.87 173.21 6.415 57.736 12.83 115.47 19.245 166.79-51.321 57.736-96.226 89.811-153.96 121.89 0 109.06 19.245 128.3-89.812 205.28-96.226 6.415-205.28-12.83-295.09-51.321 70.566 346.42 19.245 615.85-211.7 885.28-70.566 51.321-147.55 102.64-230.94 128.3v782.64c-32.075 0-70.566 6.415-102.64 12.831-51.321 205.28-96.226 404.15-141.13 609.43 0 96.226 96.226 102.64 57.736 230.94-57.736 19.245-102.64 38.491-153.96 57.736 70.567 1052.1 141.13 2110.6 211.7 3169.1 359.24-6.415 731.32-6.415 1097-6.415 6.415 1161.1 12.83 2328.7 25.66 3489.8-2675.1 12.83-5343.8 32.075-8006 44.905z"/><path class="fil3" d="m21526 6006.8c-211.7 0-391.32 70.566-532.45 218.11-147.55 141.13-224.53 340-224.53 538.87 0 198.87 76.981 384.91 218.11 532.45 141.13 141.13 333.58 224.53 538.87 224.53 192.45 0 384.9-76.981 532.45-218.11 147.55-141.13 224.53-327.17 224.53-538.87 0-205.28-76.981-391.32-218.11-532.45-147.55-147.55-333.58-224.53-538.87-224.53zm0 109.06c179.62 0 333.58 70.566 461.89 192.45 121.89 128.3 186.04 282.26 186.04 468.3 0 166.79-70.566 327.17-192.45 442.64-128.3 121.89-288.68 192.45-468.3 192.45-160.38 0-320.76-70.566-449.06-198.87-121.89-121.89-186.04-282.26-186.04-449.06 0-173.21 70.566-333.58 198.87-461.89 121.89-121.89 269.43-186.04 449.06-186.04zm-314.34 211.7v846.79h186.04v-352.83h128.3l173.21 352.83h198.87l-186.04-384.91c121.89-25.66 186.04-109.06 186.04-230.94 0-153.96-115.47-230.94-359.24-230.94zm186.04 109.06h109.06c141.13 0 205.28 44.906 205.28 141.13 0 89.811-64.15 128.3-192.45 128.3h-121.89z"/>
</g></svg>
